<svg width="1128" height="783" viewBox="0 0 1128 783" fill="none" xmlns="http://www.w3.org/2000/svg">
<path d="M1128 0V783H0.5L1128 0Z" fill="white"/>
<path d="M501 464.12C453.33 449.43 344.19 414.94 365 318.12C389 206.28 521.22 282.12 602.33 244.28C659.74 217.51 779.58 189.28 770.78 310.14C762.22 427.7 757.31 512.87 687.65 533.08C617.99 553.29 573.09 486.32 501 464.12Z" fill="white"/>
<path opacity="0.7" d="M501 464.12C453.33 449.43 344.19 414.94 365 318.12C389 206.28 521.22 282.12 602.33 244.28C659.74 217.51 779.58 189.28 770.78 310.14C762.22 427.7 757.31 512.87 687.65 533.08C617.99 553.29 573.09 486.32 501 464.12Z" fill="white"/>
<path d="M357.22 550.51H770.78" stroke="#263238" stroke-linecap="round" stroke-linejoin="round"/>
<path d="M428 436.51C434 441.51 432 470.91 450.76 458.26C469.52 445.61 437.56 438.12 439.38 430.95C441.94 420.95 484.15 432.95 477.07 413.75C469.99 394.55 444.75 423.43 438.12 416.28C432.02 409.7 462.4 385.92 448.24 381.88C434.08 377.84 437.09 412.23 428 412.23C420.9 412.23 422.23 379.35 409.18 390.98C396.13 402.61 424.65 414.08 420.92 421.3C418.08 426.79 395.63 413.24 396.64 425.89C397.65 438.54 421.6 431.22 428 436.51Z" fill="white"/>
<path d="M432 421.47C432 421.47 418.36 438 419.88 483.05" stroke="#263238" stroke-linecap="round" stroke-linejoin="round"/>
<path d="M458.63 444.9C456.21 440.03 436.14 436.7 447.63 426.13C459.12 415.56 459.08 438.22 464.19 438.13C471.34 438.01 469.95 407.71 481.75 415.53C493.55 423.35 470.09 435.72 473.85 441.31C477.3 446.46 498.12 429.82 498.59 439.99C499.06 450.16 476.41 442.63 474.96 448.76C473.83 453.53 496.15 457.87 486.25 464.76C476.35 471.65 473.18 450.69 467.74 452.05C463.59 453.05 469.13 470.34 460.79 467.64C452.45 464.94 461.17 450 458.63 444.9Z" fill="white"/>
<path opacity="0.3" d="M458.63 444.9C456.21 440.03 436.14 436.7 447.63 426.13C459.12 415.56 459.08 438.22 464.19 438.13C471.34 438.01 469.95 407.71 481.75 415.53C493.55 423.35 470.09 435.72 473.85 441.31C477.3 446.46 498.12 429.82 498.59 439.99C499.06 450.16 476.41 442.63 474.96 448.76C473.83 453.53 496.15 457.87 486.25 464.76C476.35 471.65 473.18 450.69 467.74 452.05C463.59 453.05 469.13 470.34 460.79 467.64C452.45 464.94 461.17 450 458.63 444.9Z" fill="black"/>
<path d="M469 445.11C469 445.11 430.13 441.06 426.29 483.05" stroke="#263238" stroke-linecap="round" stroke-linejoin="round"/>
<path d="M394.84 440.56C388.84 445.56 390.84 474.96 372.08 462.31C353.32 449.66 385.29 442.16 383.46 435C380.91 425 338.69 437 345.78 417.8C352.87 398.6 378.09 427.49 384.78 420.33C390.87 413.76 360.5 389.98 374.66 385.93C388.82 381.88 385.77 416.29 394.89 416.29C401.99 416.29 400.67 383.4 413.72 395.04C426.77 406.68 398.24 418.14 401.98 425.36C404.81 430.85 427.27 417.3 426.26 429.94C425.25 442.58 401.21 435.27 394.84 440.56Z" fill="white"/>
<path opacity="0.3" d="M394.84 440.56C388.84 445.56 390.84 474.96 372.08 462.31C353.32 449.66 385.29 442.16 383.46 435C380.91 425 338.69 437 345.78 417.8C352.87 398.6 378.09 427.49 384.78 420.33C390.87 413.76 360.5 389.98 374.66 385.93C388.82 381.88 385.77 416.29 394.89 416.29C401.99 416.29 400.67 383.4 413.72 395.04C426.77 406.68 398.24 418.14 401.98 425.36C404.81 430.85 427.27 417.3 426.26 429.94C425.25 442.58 401.21 435.27 394.84 440.56Z" fill="white"/>
<path d="M390.54 425.52C390.54 425.52 408.24 449.16 412.29 488.61" stroke="#263238" stroke-linecap="round" stroke-linejoin="round"/>
<path d="M403.21 550.34H430.81C433.372 550.351 435.844 549.396 437.733 547.665C439.622 545.933 440.789 543.553 441 541L445.34 490C445.453 488.599 445.275 487.19 444.817 485.861C444.359 484.533 443.631 483.314 442.678 482.28C441.726 481.247 440.569 480.422 439.282 479.857C437.995 479.293 436.605 479.001 435.2 479H398.87C397.465 479.001 396.075 479.293 394.789 479.857C393.502 480.422 392.347 481.247 391.395 482.281C390.443 483.314 389.716 484.534 389.259 485.862C388.802 487.191 388.625 488.6 388.74 490L393.08 541C393.288 543.544 394.446 545.917 396.322 547.647C398.199 549.377 400.657 550.338 403.21 550.34Z" fill="white" stroke="#263238" stroke-linecap="round" stroke-linejoin="round"/>
<path d="M609.88 477.1C600.65 477.1 574.01 471.1 574.01 471.1H645.75C645.75 471.1 619.1 477.1 609.88 477.1Z" fill="#263238" stroke="#263238" stroke-linecap="round" stroke-linejoin="round"/>
<path d="M618.1 474.09H601.66V485.36H618.1V474.09Z" fill="#858585" stroke="#263238" stroke-linecap="round" stroke-linejoin="round"/>
<path d="M620.53 485.36H599.23V533.81H620.53V485.36Z" fill="#999999" stroke="#263238" stroke-linecap="round" stroke-linejoin="round"/>
<path d="M649.89 456.71H636C637.54 447.17 638.68 437.45 639.38 427.82H653.22C652.56 437.45 651.43 447.17 649.89 456.71Z" fill="#858585" stroke="#263238" stroke-linecap="round" stroke-linejoin="round"/>
<path d="M670.92 342.48H611.24C604.24 342.48 599.63 348.41 600.99 355.39C604.801 376.713 607.08 398.281 607.81 419.93C607.803 421.407 608.09 422.87 608.654 424.236C609.217 425.601 610.047 426.84 611.093 427.882C612.14 428.924 613.383 429.748 614.751 430.305C616.118 430.863 617.583 431.143 619.06 431.13H669.3C672.422 431.099 675.431 429.953 677.783 427.899C680.136 425.846 681.677 423.02 682.13 419.93C684.552 398.507 685.428 376.938 684.75 355.39C684.42 348.41 677.93 342.48 670.92 342.48Z" fill="#858585" stroke="#263238" stroke-linecap="round" stroke-linejoin="round"/>
<path d="M674.17 355.39C674.848 376.938 673.972 398.507 671.55 419.93C671.097 423.02 669.556 425.846 667.203 427.899C664.851 429.953 661.842 431.099 658.72 431.13H619.06C617.583 431.143 616.118 430.863 614.751 430.305C613.383 429.748 612.14 428.924 611.093 427.882C610.047 426.84 609.217 425.601 608.654 424.236C608.09 422.87 607.803 421.407 607.81 419.93C607.084 398.282 604.808 376.713 601 355.39C599.64 348.39 604.23 342.48 611.25 342.48H660.34C667.35 342.48 673.84 348.41 674.17 355.39Z" fill="#999999" stroke="#263238" stroke-linecap="round" stroke-linejoin="round"/>
<path d="M645.75 542.51C645.75 542.776 645.691 543.039 645.576 543.279C645.461 543.519 645.294 543.73 645.087 543.897C644.879 544.064 644.637 544.182 644.378 544.244C644.119 544.305 643.85 544.307 643.59 544.25C637.06 542.83 617.51 538.71 609.88 538.71C602.25 538.71 582.69 542.83 576.16 544.25C575.901 544.307 575.632 544.305 575.373 544.244C575.115 544.183 574.873 544.064 574.667 543.897C574.46 543.73 574.294 543.519 574.18 543.278C574.066 543.038 574.008 542.776 574.01 542.51C574.009 541.441 574.375 540.404 575.047 539.572C575.718 538.74 576.655 538.164 577.7 537.94C585.34 536.3 602.77 532.73 609.88 532.73C616.99 532.73 634.42 536.3 642.06 537.94C643.104 538.166 644.04 538.743 644.711 539.574C645.383 540.405 645.749 541.441 645.75 542.51Z" fill="#263238" stroke="#263238" stroke-linecap="round" stroke-linejoin="round"/>
<path d="M574 538.91C572.785 538.908 571.596 539.267 570.585 539.941C569.574 540.615 568.785 541.573 568.319 542.696C567.853 543.818 567.731 545.053 567.968 546.245C568.204 547.437 568.789 548.532 569.648 549.392C570.508 550.251 571.603 550.836 572.795 551.072C573.987 551.309 575.222 551.187 576.344 550.721C577.467 550.255 578.426 549.466 579.099 548.455C579.773 547.444 580.132 546.255 580.13 545.04C580.127 543.415 579.481 541.857 578.332 540.708C577.183 539.559 575.625 538.913 574 538.91ZM574 548.37C573.341 548.372 572.696 548.178 572.147 547.814C571.598 547.449 571.17 546.93 570.916 546.321C570.663 545.713 570.596 545.043 570.723 544.396C570.85 543.75 571.167 543.156 571.632 542.689C572.097 542.222 572.691 541.904 573.337 541.775C573.983 541.645 574.653 541.711 575.262 541.963C575.871 542.214 576.392 542.641 576.758 543.189C577.125 543.737 577.32 544.381 577.32 545.04C577.32 545.921 576.971 546.767 576.348 547.391C575.726 548.015 574.882 548.367 574 548.37Z" fill="#858585" stroke="#263238" stroke-linecap="round" stroke-linejoin="round"/>
<path d="M609.88 538.91C608.663 538.906 607.472 539.264 606.458 539.939C605.445 540.613 604.655 541.574 604.189 542.698C603.722 543.823 603.601 545.06 603.839 546.254C604.078 547.448 604.666 548.544 605.529 549.402C606.392 550.261 607.491 550.844 608.686 551.077C609.881 551.309 611.118 551.182 612.24 550.71C613.362 550.238 614.319 549.443 614.988 548.427C615.658 547.41 616.01 546.217 616 545C615.987 543.384 615.337 541.838 614.191 540.698C613.045 539.558 611.496 538.915 609.88 538.91ZM609.88 548.37C609.223 548.372 608.58 548.179 608.031 547.816C607.483 547.453 607.055 546.936 606.8 546.33C606.546 545.724 606.476 545.057 606.6 544.411C606.724 543.766 607.037 543.171 607.498 542.703C607.959 542.235 608.549 541.914 609.193 541.78C609.836 541.646 610.505 541.706 611.115 541.951C611.724 542.197 612.248 542.617 612.619 543.16C612.99 543.702 613.192 544.343 613.2 545C613.205 545.44 613.123 545.876 612.959 546.284C612.795 546.692 612.551 547.064 612.242 547.377C611.934 547.69 611.566 547.939 611.161 548.11C610.755 548.28 610.32 548.369 609.88 548.37Z" fill="#858585" stroke="#263238" stroke-linecap="round" stroke-linejoin="round"/>
<path d="M645 538.91C643.785 538.91 642.598 539.27 641.588 539.945C640.578 540.621 639.791 541.58 639.327 542.703C638.862 543.825 638.741 545.06 638.979 546.252C639.217 547.443 639.802 548.537 640.662 549.395C641.522 550.253 642.617 550.837 643.808 551.073C645 551.309 646.235 551.186 647.357 550.72C648.478 550.253 649.437 549.465 650.11 548.454C650.784 547.443 651.142 546.255 651.14 545.04C651.14 544.234 650.981 543.436 650.673 542.692C650.364 541.947 649.911 541.271 649.341 540.702C648.771 540.133 648.094 539.681 647.349 539.374C646.604 539.066 645.806 538.909 645 538.91ZM645 548.37C644.341 548.37 643.698 548.175 643.15 547.809C642.602 547.443 642.176 546.923 641.924 546.314C641.672 545.706 641.606 545.036 641.734 544.39C641.863 543.744 642.18 543.151 642.645 542.685C643.111 542.22 643.704 541.902 644.35 541.774C644.996 541.645 645.666 541.711 646.274 541.963C646.883 542.215 647.403 542.642 647.769 543.19C648.135 543.738 648.33 544.381 648.33 545.04C648.33 545.923 647.979 546.77 647.355 547.395C646.73 548.019 645.883 548.37 645 548.37Z" fill="#858585" stroke="#263238" stroke-linecap="round" stroke-linejoin="round"/>
<path d="M628.06 454.77C604.118 455.53 580.152 454.47 556.37 451.6C555.272 451.402 554.144 451.451 553.068 451.744C551.992 452.037 550.994 452.566 550.148 453.293C549.302 454.02 548.629 454.927 548.178 455.947C547.727 456.967 547.509 458.075 547.54 459.19V460.36C547.598 462.817 548.512 465.176 550.124 467.031C551.736 468.886 553.945 470.12 556.37 470.52C580.152 473.385 604.118 474.445 628.06 473.69V454.77Z" fill="#999999" stroke="#263238" stroke-linecap="round" stroke-linejoin="round"/>
<path d="M665.66 470.21C650.8 472.07 636.07 473.3 621.11 473.94C620.248 473.967 619.39 473.82 618.586 473.507C617.783 473.195 617.05 472.723 616.433 472.121C615.816 471.519 615.327 470.798 614.995 470.002C614.662 469.207 614.494 468.352 614.5 467.49V461.74C614.518 459.983 615.217 458.302 616.45 457.05C617.683 455.798 619.354 455.074 621.11 455.03C636.11 454.38 650.8 453.15 665.66 451.29C666.474 451.137 667.312 451.169 668.112 451.382C668.912 451.596 669.654 451.986 670.283 452.524C670.912 453.063 671.413 453.735 671.748 454.492C672.084 455.25 672.245 456.072 672.22 456.9V462.65C672.172 464.475 671.491 466.226 670.295 467.605C669.098 468.984 667.46 469.905 665.66 470.21Z" fill="#858585" stroke="#263238" stroke-linecap="round" stroke-linejoin="round"/>
<path d="M566.17 548C566.17 544.66 565.44 538 561.5 529.35L556.37 510.85L540.37 517.68L544.87 531.85C544.87 531.85 531.12 538.41 526.04 540.18C522.66 541.36 512.54 543.68 513.04 548.02C513.04 548.326 513.1 548.629 513.217 548.912C513.335 549.194 513.506 549.451 513.723 549.668C513.939 549.884 514.196 550.056 514.478 550.173C514.761 550.29 515.064 550.35 515.37 550.35H563.83C564.139 550.351 564.444 550.291 564.729 550.174C565.015 550.056 565.274 549.883 565.491 549.664C565.709 549.445 565.881 549.186 565.998 548.9C566.114 548.614 566.173 548.309 566.17 548Z" fill="white" stroke="#263238" stroke-linecap="round" stroke-linejoin="round"/>
<path d="M557.36 537.17C554.86 539.01 541.53 541.34 544.87 538.67C548.21 536 544.87 531.84 544.87 531.84C544.87 531.84 531.12 538.4 526.04 540.17C522.66 541.35 512.54 543.67 513.04 548.01C513.04 548.316 513.1 548.619 513.217 548.902C513.335 549.184 513.506 549.441 513.723 549.658C513.939 549.874 514.196 550.046 514.478 550.163C514.761 550.28 515.064 550.34 515.37 550.34H563.83C564.138 550.341 564.443 550.281 564.728 550.163C565.013 550.046 565.271 549.872 565.488 549.653C565.705 549.435 565.876 549.175 565.991 548.889C566.107 548.604 566.164 548.298 566.16 547.99C565.996 542.924 564.961 537.924 563.1 533.21C560.35 533.24 559.86 535.34 557.36 537.17Z" fill="white" stroke="#263238" stroke-linecap="round" stroke-linejoin="round"/>
<path d="M577.74 550.34H613.24C613.595 550.339 613.939 550.215 614.213 549.989C614.486 549.763 614.673 549.449 614.74 549.1C615.28 546.28 615.16 539.97 611.96 531.59L611.64 514.59L593.46 517.68L595.76 532.18C595.76 532.18 588.44 540.24 584.96 541.68C582.52 542.68 576.96 542.8 576.22 548.68C576.201 548.891 576.225 549.104 576.293 549.305C576.361 549.506 576.469 549.69 576.613 549.846C576.756 550.003 576.93 550.127 577.124 550.212C577.318 550.297 577.528 550.341 577.74 550.34Z" fill="white" stroke="#263238" stroke-linecap="round" stroke-linejoin="round"/>
<path d="M606 537.24C602.25 539.86 599.48 540.17 601.23 536.24C602.98 532.31 595.8 532.17 595.8 532.17C595.8 532.17 588.48 540.23 585 541.67C582.56 542.67 577 542.79 576.26 548.67C576.235 548.884 576.255 549.101 576.32 549.307C576.385 549.513 576.492 549.702 576.636 549.863C576.78 550.024 576.956 550.152 577.154 550.24C577.351 550.327 577.564 550.372 577.78 550.37H613.28C613.635 550.369 613.979 550.245 614.253 550.019C614.526 549.793 614.713 549.479 614.78 549.13C615.32 546.31 615.2 540 612 531.62C609.22 532.26 609.72 534.61 606 537.24Z" fill="white" stroke="#263238" stroke-linecap="round" stroke-linejoin="round"/>
<path d="M574.21 420.51C574.21 420.51 570.63 424.17 556 426.51C541.37 428.85 511 436.17 511.37 448.17C511.74 460.17 539.71 524.17 539.71 524.17C539.71 524.17 553.71 521.51 560.21 517.51C560.21 517.51 548.94 471.84 540.49 459.84C540.49 459.84 578.42 455.17 599.4 446.51C620.38 437.85 608.04 418.11 608.04 418.11L574.21 420.51Z" fill="#263238" stroke="#263238" stroke-linecap="round" stroke-linejoin="round"/>
<path d="M598 418.82C598 418.82 603.38 427.82 599.36 432.82C595.34 437.82 572.51 447.15 575.09 458.49C577.67 469.83 586.19 485.82 591.74 523.82C591.74 523.82 604.67 521.82 613.33 518.15C613.33 518.15 614.77 479.49 604.72 462.82C604.72 462.82 633.5 457.49 636.42 447.82C639.34 438.15 633.88 423.37 633.77 418.09L598 418.82Z" fill="#263238" stroke="#263238" stroke-linecap="round" stroke-linejoin="round"/>
<path d="M580.7 433.14C580.034 433.09 579.366 433.09 578.7 433.14" stroke="#7F7F7F" stroke-width="0.75" stroke-linecap="round" stroke-linejoin="round"/>
<path d="M582 427.17C582 427.17 587.91 428.91 590.23 436.62C590.26 436.747 590.25 436.88 590.2 437C590.15 437.12 590.064 437.222 589.954 437.291C589.843 437.359 589.713 437.391 589.584 437.382C589.454 437.373 589.33 437.323 589.23 437.24C587.646 435.61 585.695 434.383 583.54 433.66" stroke="#7F7F7F" stroke-width="0.75" stroke-linecap="round" stroke-linejoin="round"/>
<path d="M537.71 459.42C537.71 456.17 523.71 454.42 527.46 451.42C531.21 448.42 539.71 458.17 539.71 458.17" stroke="#7F7F7F" stroke-width="0.75" stroke-linecap="round" stroke-linejoin="round"/>
<path d="M606.5 472.42C606.5 468.7 593.12 466.67 593.79 462.67C594.46 458.67 602.96 466.55 602.96 466.55" stroke="#7F7F7F" stroke-width="0.75" stroke-linecap="round" stroke-linejoin="round"/>
<path d="M538.23 524.4L539.7 527.8C539.781 527.988 539.926 528.142 540.108 528.235C540.291 528.328 540.5 528.355 540.7 528.31C543.93 527.58 557.41 524.4 562.14 521C562.277 520.899 562.381 520.76 562.438 520.599C562.496 520.439 562.503 520.265 562.46 520.1L561.54 516.31C561.509 516.179 561.448 516.057 561.362 515.954C561.276 515.85 561.167 515.768 561.044 515.714C560.921 515.66 560.787 515.635 560.653 515.641C560.519 515.647 560.388 515.685 560.27 515.75C558.14 516.91 552.21 519.68 538.82 523.2C538.698 523.233 538.584 523.292 538.486 523.372C538.389 523.453 538.309 523.553 538.254 523.666C538.198 523.78 538.167 523.904 538.163 524.031C538.159 524.157 538.182 524.283 538.23 524.4Z" fill="#999999" stroke="#263238" stroke-linecap="round" stroke-linejoin="round"/>
<path d="M590.15 521.6C590.133 521.483 590.147 521.363 590.189 521.253C590.232 521.142 590.303 521.044 590.394 520.969C590.486 520.894 590.595 520.843 590.711 520.822C590.828 520.802 590.948 520.811 591.06 520.85C592.685 521.357 594.422 521.381 596.06 520.92C599.77 520.08 610.38 516.72 613.54 515.71C613.644 515.677 613.754 515.669 613.861 515.686C613.969 515.704 614.07 515.746 614.158 515.811C614.246 515.875 614.317 515.959 614.366 516.057C614.415 516.154 614.44 516.261 614.44 516.37V520.79C614.441 520.924 614.403 521.055 614.33 521.167C614.257 521.279 614.153 521.367 614.03 521.42C611.55 522.53 598.26 528.22 591.31 526.67C591.174 526.638 591.052 526.566 590.959 526.462C590.866 526.358 590.807 526.228 590.79 526.09L590.15 521.6Z" fill="#999999" stroke="#263238" stroke-linecap="round" stroke-linejoin="round"/>
<path d="M600.85 429C600.753 430.382 600.249 431.705 599.4 432.8C596.46 436.45 583.53 442.4 577.74 449.8" stroke="#7F7F7F" stroke-linecap="round" stroke-linejoin="round"/>
<path d="M600.22 424C600.444 424.737 600.614 425.489 600.73 426.25" stroke="#7F7F7F" stroke-linecap="round" stroke-linejoin="round"/>
<path d="M523.64 542.42C524.456 543.908 525.046 545.509 525.39 547.17H561.5C561.634 545.596 562.346 544.128 563.5 543.05" stroke="#263238" stroke-linecap="round" stroke-linejoin="round"/>
<path d="M586.39 542.42C586.39 542.42 591.39 542.8 593.26 547.17H612.14C612.71 545.865 613.048 544.471 613.14 543.05" stroke="#263238" stroke-linecap="round" stroke-linejoin="round"/>
<path d="M556.79 364C557.25 365.76 557.73 367.51 558.21 369.22C563.21 387.22 569.71 421.47 569.71 421.47C601.71 428.22 635.46 421.47 635.46 421.47C635.64 414.01 634.73 404.16 633.72 393.81C638.96 392.36 642.72 387.52 642.96 379.47C643.21 369.72 641.44 352.17 640.46 343.97C639.59 336.76 640.21 332.47 629.04 326.97C623.44 323.74 614.14 322.21 602.71 320.68C580.21 317.68 563.97 322.23 558.21 324.68C553.64 323.48 552.37 328.84 552.37 328.84C549.84 326.93 546.9 335.03 546.9 335.03C539.5 344.47 533.68 360.37 531.74 366.03C531.311 367.267 530.524 368.35 529.48 369.14C524.23 373.14 527.15 378.09 527.15 378.09L537.9 381.38C537.9 381.38 543.11 382.74 547.09 375.89C550.41 370.17 555.85 360.46 556.79 364Z" fill="white"/>
<mask id="mask0_21_179" style="mask-type:luminance" maskUnits="userSpaceOnUse" x="526" y="319" width="117" height="106">
<path d="M556.79 364C557.25 365.76 557.73 367.51 558.21 369.22C563.21 387.22 569.71 421.47 569.71 421.47C601.71 428.22 635.46 421.47 635.46 421.47C635.64 414.01 634.73 404.16 633.72 393.81C638.96 392.36 642.72 387.52 642.96 379.47C643.21 369.72 641.44 352.17 640.46 343.97C639.59 336.76 640.21 332.47 629.04 326.97C623.44 323.74 614.14 322.21 602.71 320.68C580.21 317.68 563.97 322.23 558.21 324.68C553.64 323.48 552.37 328.84 552.37 328.84C549.84 326.93 546.9 335.03 546.9 335.03C539.5 344.47 533.68 360.37 531.74 366.03C531.311 367.267 530.524 368.35 529.48 369.14C524.23 373.14 527.15 378.09 527.15 378.09L537.9 381.38C537.9 381.38 543.11 382.74 547.09 375.89C550.41 370.17 555.85 360.46 556.79 364Z" fill="white"/>
</mask>
<g mask="url(#mask0_21_179)">
<path opacity="0.3" d="M539.88 376.87C539.88 376.87 539.63 371.87 535.63 371C531.63 370.13 536.75 368.63 539.88 369.38C543.01 370.13 542.28 367.38 544.96 362.88C547.64 358.38 548.96 354.82 551.22 357.41C553.48 360 555.83 360.41 556.79 363.95C557.75 367.49 553 375.95 553 375.95L545.54 381.74L541.75 383.86H536.1L534.16 378.97L539.88 376.87Z" fill="black"/>
</g>
<path d="M556.79 364C557.25 365.76 557.73 367.51 558.21 369.22C563.21 387.22 569.71 421.47 569.71 421.47C601.71 428.22 635.46 421.47 635.46 421.47C635.64 414.01 634.73 404.16 633.72 393.81C638.96 392.36 642.72 387.52 642.96 379.47C643.21 369.72 641.44 352.17 640.46 343.97C639.59 336.76 640.21 332.47 629.04 326.97C623.44 323.74 614.14 322.21 602.71 320.68C580.21 317.68 563.97 322.23 558.21 324.68C553.64 323.48 552.37 328.84 552.37 328.84C549.84 326.93 546.9 335.03 546.9 335.03C539.5 344.47 533.68 360.37 531.74 366.03C531.311 367.267 530.524 368.35 529.48 369.14C524.23 373.14 527.15 378.09 527.15 378.09L537.9 381.38C537.9 381.38 543.11 382.74 547.09 375.89C550.41 370.17 555.85 360.46 556.79 364Z" stroke="#263238" stroke-linecap="round" stroke-linejoin="round"/>
<path opacity="0.3" d="M635.46 421.42C635.486 414.994 635.168 408.572 634.51 402.18C635.6 417.41 603.89 422.18 602.89 413.92C601.89 405.66 633.72 393.76 616.4 397.92C601.29 401.55 572 398.08 564.8 397.14C567.57 410.14 569.71 421.42 569.71 421.42C601.71 428.17 635.46 421.42 635.46 421.42Z" fill="black"/>
<path opacity="0.3" d="M620.92 344.92C620.92 344.92 616.39 358.17 616.4 365.17C616.41 372.17 603.71 376.87 603.68 376.87C610.49 375.49 617.11 373.66 620.27 372.74C620.814 372.586 621.288 372.247 621.609 371.782C621.93 371.316 622.079 370.753 622.03 370.19C621.223 361.792 620.853 353.357 620.92 344.92Z" fill="black"/>
<path d="M552.6 341.59C552.643 347.833 553.77 354.022 555.93 359.88C555.993 360.052 555.999 360.239 555.948 360.415C555.897 360.59 555.791 360.745 555.646 360.856C555.502 360.968 555.325 361.03 555.142 361.034C554.959 361.039 554.78 360.985 554.63 360.88C552.91 359.65 550.48 357.15 548.29 352.11" stroke="#263238" stroke-width="0.75" stroke-linecap="round" stroke-linejoin="round"/>
<path d="M637.46 382.42C634.82 373.67 630.25 371.48 626.71 371.26C626.601 371.244 626.498 371.197 626.416 371.123C626.334 371.05 626.275 370.953 626.247 370.847C626.219 370.74 626.224 370.627 626.26 370.523C626.296 370.418 626.362 370.327 626.45 370.26C628.51 369.15 632.52 368.26 637.45 373.72" stroke="#263238" stroke-width="0.75" stroke-linecap="round" stroke-linejoin="round"/>
<path d="M586.73 357.38C586.688 357.748 586.511 358.087 586.235 358.334C585.958 358.58 585.601 358.717 585.23 358.717C584.86 358.717 584.502 358.58 584.226 358.334C583.949 358.087 583.773 357.748 583.73 357.38C583.706 357.168 583.726 356.954 583.79 356.751C583.855 356.548 583.961 356.361 584.103 356.202C584.244 356.043 584.418 355.916 584.612 355.829C584.807 355.742 585.017 355.697 585.23 355.697C585.443 355.697 585.654 355.742 585.848 355.829C586.042 355.916 586.216 356.043 586.357 356.202C586.499 356.361 586.606 356.548 586.67 356.751C586.734 356.954 586.755 357.168 586.73 357.38Z" fill="#999999" stroke="#263238" stroke-width="0.75" stroke-linecap="round" stroke-linejoin="round"/>
<path d="M588.76 374.4C588.76 374.697 588.672 374.987 588.507 375.233C588.342 375.48 588.108 375.672 587.834 375.786C587.56 375.899 587.258 375.929 586.967 375.871C586.676 375.813 586.409 375.67 586.199 375.461C585.99 375.251 585.847 374.984 585.789 374.693C585.731 374.402 585.761 374.1 585.874 373.826C585.988 373.552 586.18 373.318 586.427 373.153C586.673 372.988 586.963 372.9 587.26 372.9C587.658 372.9 588.039 373.058 588.321 373.339C588.602 373.621 588.76 374.002 588.76 374.4Z" fill="#999999" stroke="#263238" stroke-width="0.75" stroke-linecap="round" stroke-linejoin="round"/>
<path d="M593.79 415.42C593.792 415.719 593.705 416.012 593.54 416.262C593.376 416.511 593.141 416.706 592.865 416.822C592.589 416.938 592.285 416.969 591.992 416.912C591.698 416.855 591.428 416.712 591.216 416.501C591.004 416.291 590.859 416.021 590.8 415.728C590.741 415.435 590.77 415.131 590.884 414.854C590.998 414.578 591.192 414.342 591.44 414.175C591.689 414.009 591.981 413.92 592.28 413.92C592.679 413.92 593.061 414.078 593.344 414.359C593.627 414.64 593.787 415.021 593.79 415.42Z" fill="#999999" stroke="#263238" stroke-linecap="round" stroke-linejoin="round"/>
<path d="M565.07 385.55C565.07 385.55 560.16 390.23 562.5 390.31C564.84 390.39 567.79 387.17 570.5 386.8C573.21 386.43 568.83 384.8 568.83 384.8L565.07 385.55Z" fill="white" stroke="#263238" stroke-linecap="round" stroke-linejoin="round"/>
<path d="M593.74 380.28C593.52 380.083 593.262 379.933 592.981 379.84C592.701 379.747 592.404 379.713 592.11 379.74C589.71 379.94 582.81 380.46 580.21 380.3C575.59 380.01 561.98 377.13 561.98 377.13C561.667 377.077 561.346 377.094 561.04 377.18L552.61 379.66C552.303 379.749 552.022 379.91 551.79 380.13L546.69 384.81C546.522 384.967 546.381 385.149 546.27 385.35L545.21 387.29C544.991 387.688 544.909 388.148 544.976 388.597C545.042 389.047 545.255 389.462 545.58 389.78L554 390C554.52 390.025 555.03 389.845 555.42 389.5L557.92 387.36C558.087 387.215 558.232 387.047 558.35 386.86C558.96 385.86 561.35 382.56 565.05 382.86C565.05 382.86 557.05 387.11 558.56 388.86C560.07 390.61 566.19 385.61 568.19 386.11C570.19 386.61 570.32 391.52 581.19 389.74C581.676 389.658 582.174 389.682 582.65 389.81L592.55 392.58C592.844 392.661 593.15 392.683 593.452 392.645C593.755 392.606 594.046 392.507 594.31 392.354C594.573 392.202 594.803 391.998 594.987 391.755C595.171 391.512 595.305 391.235 595.38 390.94C596.15 388.1 596.83 383.1 593.74 380.28Z" fill="white" stroke="#263238" stroke-linecap="round" stroke-linejoin="round"/>
<path d="M563.16 378.92L561.04 379.28C560.006 379.455 559.041 379.912 558.25 380.6L556 382.53C555.617 382.875 555.281 383.268 555 383.7L553.55 385.91C553.393 386.154 553.215 386.385 553.02 386.6C552.16 387.6 549.79 390.37 552.35 389.99" fill="white"/>
<path d="M563.16 378.92L561.04 379.28C560.006 379.455 559.041 379.912 558.25 380.6L556 382.53C555.617 382.875 555.281 383.268 555 383.7L553.55 385.91C553.393 386.154 553.215 386.385 553.02 386.6C552.16 387.6 549.79 390.37 552.35 389.99" stroke="#263238" stroke-linecap="round" stroke-linejoin="round"/>
<path d="M557.19 379.67L555 380.27C554.316 380.437 553.688 380.782 553.18 381.27L551.47 382.91C551.302 383.059 551.151 383.227 551.02 383.41L548.21 387.14C548.21 387.14 546.71 389.78 548.21 389.83" fill="white"/>
<path d="M557.19 379.67L555 380.27C554.316 380.437 553.688 380.782 553.18 381.27L551.47 382.91C551.302 383.059 551.151 383.227 551.02 383.41L548.21 387.14C548.21 387.14 546.71 389.78 548.21 389.83" stroke="#263238" stroke-linecap="round" stroke-linejoin="round"/>
<path d="M621 342.8C620.788 351.942 621.121 361.088 622 370.19C622.049 370.753 621.9 371.316 621.579 371.782C621.258 372.247 620.784 372.586 620.24 372.74C612.289 375.091 604.192 376.912 596 378.19" stroke="#263238" stroke-linecap="round" stroke-linejoin="round"/>
<path d="M621.48 336.6C621.35 337.6 621.24 338.69 621.16 339.8" stroke="#263238" stroke-width="0.75" stroke-linecap="round" stroke-linejoin="round"/>
<path d="M624.83 327.24C623.69 328.24 622.83 330.05 622.24 332.45" stroke="#263238" stroke-width="0.75" stroke-linecap="round" stroke-linejoin="round"/>
<path d="M574.76 321.3C574.76 321.3 575.39 319.3 578.76 318.17C582.13 317.04 593.82 315.25 599.83 318.17C605.84 321.09 594.33 336.98 594.33 336.98L589 344.36L584.25 347.92L582.13 341.59L579.38 338.73C579.38 338.73 573.44 333.86 573.94 329.05C574.44 324.24 574.76 321.3 574.76 321.3Z" fill="white"/>
<path d="M604.27 320.88C603.33 317.59 599.04 316.67 599.04 316.67C578.54 313.17 574.21 320.67 574.21 320.67C571.696 327.444 571.696 334.896 574.21 341.67C574.21 341.67 580.04 339.25 581.04 341.67C582.04 344.09 583.87 349.25 583.87 349.25C586.653 347.682 589.081 345.554 591 343C594.17 338.83 601.61 343 601.61 343C606.43 334.67 604.27 320.88 604.27 320.88ZM599.27 320.64C591.33 345.56 584.33 346.64 584.33 346.64C582 337.48 580 339.48 576.83 333.75C574.29 329.15 575.15 323.33 575.59 321.2C575.642 320.946 575.749 320.706 575.905 320.499C576.061 320.291 576.26 320.121 576.49 320C584.37 316 594.01 317.47 597.98 318.34C598.226 318.391 598.458 318.493 598.661 318.64C598.865 318.787 599.035 318.975 599.16 319.192C599.286 319.409 599.364 319.65 599.39 319.9C599.416 320.15 599.389 320.402 599.31 320.64H599.27Z" fill="white"/>
<mask id="mask1_21_179" style="mask-type:luminance" maskUnits="userSpaceOnUse" x="572" y="315" width="33" height="35">
<path d="M604.27 320.88C603.33 317.59 599.04 316.67 599.04 316.67C578.54 313.17 574.21 320.67 574.21 320.67C571.696 327.444 571.696 334.896 574.21 341.67C574.21 341.67 580.04 339.25 581.04 341.67C582.04 344.09 583.87 349.25 583.87 349.25C586.653 347.682 589.081 345.554 591 343C594.17 338.83 601.61 343 601.61 343C606.43 334.67 604.27 320.88 604.27 320.88ZM599.27 320.64C591.33 345.56 584.33 346.64 584.33 346.64C582 337.48 580 339.48 576.83 333.75C574.29 329.15 575.15 323.33 575.59 321.2C575.642 320.946 575.749 320.706 575.905 320.499C576.061 320.291 576.26 320.121 576.49 320C584.37 316 594.01 317.47 597.98 318.34C598.226 318.391 598.458 318.493 598.661 318.64C598.865 318.787 599.035 318.975 599.16 319.192C599.286 319.409 599.364 319.65 599.39 319.9C599.416 320.15 599.389 320.402 599.31 320.64H599.27Z" fill="white"/>
</mask>
<g mask="url(#mask1_21_179)">
<path opacity="0.4" d="M604.27 320.88C603.33 317.59 599.04 316.67 599.04 316.67C578.54 313.17 574.21 320.67 574.21 320.67C571.696 327.444 571.696 334.896 574.21 341.67C574.21 341.67 580.04 339.25 581.04 341.67C582.04 344.09 583.87 349.25 583.87 349.25C586.653 347.682 589.081 345.554 591 343C594.17 338.83 601.61 343 601.61 343C606.43 334.67 604.27 320.88 604.27 320.88ZM599.27 320.64C591.33 345.56 584.33 346.64 584.33 346.64C582 337.48 580 339.48 576.83 333.75C574.29 329.15 575.15 323.33 575.59 321.2C575.642 320.946 575.749 320.706 575.905 320.499C576.061 320.291 576.26 320.121 576.49 320C584.37 316 594.01 317.47 597.98 318.34C598.226 318.391 598.458 318.493 598.661 318.64C598.865 318.787 599.035 318.975 599.16 319.192C599.286 319.409 599.364 319.65 599.39 319.9C599.416 320.15 599.389 320.402 599.31 320.64H599.27Z" fill="white"/>
</g>
<path d="M604.27 320.88C603.33 317.59 599.04 316.67 599.04 316.67C578.54 313.17 574.21 320.67 574.21 320.67C571.696 327.444 571.696 334.896 574.21 341.67C574.21 341.67 580.04 339.25 581.04 341.67C582.04 344.09 583.87 349.25 583.87 349.25C586.653 347.682 589.081 345.554 591 343C594.17 338.83 601.61 343 601.61 343C606.43 334.67 604.27 320.88 604.27 320.88ZM599.27 320.64C591.33 345.56 584.33 346.64 584.33 346.64C582 337.48 580 339.48 576.83 333.75C574.29 329.15 575.15 323.33 575.59 321.2C575.642 320.946 575.749 320.706 575.905 320.499C576.061 320.291 576.26 320.121 576.49 320C584.37 316 594.01 317.47 597.98 318.34C598.226 318.391 598.458 318.493 598.661 318.64C598.865 318.787 599.035 318.975 599.16 319.192C599.286 319.409 599.364 319.65 599.39 319.9C599.416 320.15 599.389 320.402 599.31 320.64H599.27Z" stroke="#263238" stroke-linecap="round" stroke-linejoin="round"/>
<path d="M570.8 282.8C570.8 282.8 553.13 286.34 562.86 297.8C573.65 310.57 570.8 282.8 570.8 282.8Z" fill="#263238" stroke="#263238" stroke-linecap="round" stroke-linejoin="round"/>
<path d="M563.83 310.84C563.83 310.84 559.63 293.84 567.63 285.67C575.63 277.5 584.3 275.84 590.8 279.84C597.3 283.84 600 293.84 599 299C598 304.16 598.48 322.66 589.57 330.33C580.66 338 575.18 336.11 569.29 325.66C565.38 318.81 563.53 316.84 563.83 310.84Z" fill="white" stroke="#263238" stroke-linecap="round" stroke-linejoin="round"/>
<path d="M594.8 307.51C594.8 307.51 588.08 300.84 586.02 293.01C583.96 285.18 582.8 283.84 575.13 287.67C567.46 291.5 555.5 286.35 558.63 276.67C561.92 266.51 571.97 279.67 581.63 276.34C591.29 273.01 598.16 279.01 598.17 287.84C598.17 287.84 604.01 293.51 598.17 308.17L594.8 307.51Z" fill="#263238" stroke="#263238" stroke-linecap="round" stroke-linejoin="round"/>
<path d="M592.69 306.39C592.69 306.39 594.39 297.07 599.11 297.93C603.83 298.79 600.46 312.55 594.9 311.05" fill="white"/>
<path d="M592.69 306.39C592.69 306.39 594.39 297.07 599.11 297.93C603.83 298.79 600.46 312.55 594.9 311.05" stroke="#263238" stroke-linecap="round" stroke-linejoin="round"/>
<path d="M570.22 309.55C570.22 309.55 568.36 318.2 568.97 319.68C569.58 321.16 575.29 320.03 575.29 320.03" fill="white"/>
<path d="M570.22 309.55C570.22 309.55 568.36 318.2 568.97 319.68C569.58 321.16 575.29 320.03 575.29 320.03" stroke="#263238" stroke-linecap="round" stroke-linejoin="round"/>
<path d="M576.09 323.8C576.09 323.8 580.57 325.57 584.52 319.68Z" fill="white"/>
<path d="M576.09 323.8C576.09 323.8 580.57 325.57 584.52 319.68" stroke="#263238" stroke-linecap="round" stroke-linejoin="round"/>
<path d="M567.15 310.27C567.31 311.07 567.1 311.8 566.68 311.89C566.26 311.98 565.77 311.4 565.6 310.59C565.43 309.78 565.6 309.06 566.07 308.97C566.54 308.88 567 309.46 567.15 310.27Z" fill="#263238"/>
<path d="M578.11 309.39C578.28 310.19 578.11 310.92 577.64 311.01C577.17 311.1 576.74 310.51 576.57 309.71C576.4 308.91 576.57 308.18 577.04 308.09C577.51 308 578 308.58 578.11 309.39Z" fill="#263238"/>
<path d="M569.45 309.89C569.68 312.16 567.45 314.24 564.37 314.54C561.29 314.84 558.69 313.26 558.46 310.99C558.23 308.72 560.62 307.73 563.66 307.42C566.7 307.11 569.23 307.63 569.45 309.89Z" stroke="#263238" stroke-linecap="round" stroke-linejoin="round"/>
<path d="M583.6 308.48C583.83 310.74 581.55 312.83 578.52 313.13C575.49 313.43 572.84 311.84 572.61 309.58C572.38 307.32 574.77 306.31 577.81 306.01C580.85 305.71 583.38 306.21 583.6 308.48Z" stroke="#263238" stroke-linecap="round" stroke-linejoin="round"/>
<path d="M569.45 309.89L572.61 309.58" stroke="#263238" stroke-linecap="round" stroke-linejoin="round"/>
<path d="M583.22 307.34L594.84 300.49" stroke="#263238" stroke-linecap="round" stroke-linejoin="round"/>
<path d="M596.83 318.01L597.38 319.34" stroke="#263238" stroke-linecap="round" stroke-linejoin="round"/>
<path d="M562.9 306.24C562.9 306.24 564.67 303.99 566.84 305.07Z" fill="white"/>
<path d="M562.9 306.24C562.9 306.24 564.67 303.99 566.84 305.07" stroke="#263238" stroke-linecap="round" stroke-linejoin="round"/>
<path d="M581 305.23C581 305.23 577.89 302.23 574.89 304.35Z" fill="white"/>
<path d="M581 305.23C581 305.23 577.89 302.23 574.89 304.35" stroke="#263238" stroke-linecap="round" stroke-linejoin="round"/>
<path d="M566.83 277.8C571.56 279.3 579.52 281.14 586.02 279.17C596.02 276.17 592.59 287.37 594.84 290.46" stroke="#7F7F7F" stroke-linecap="round" stroke-linejoin="round"/>
<path d="M562.73 276.3C562.73 276.3 563.52 276.65 564.87 277.13" stroke="#7F7F7F" stroke-linecap="round" stroke-linejoin="round"/>
<path d="M574.68 283.37C575.21 283.21 575.76 283.02 576.34 282.8" stroke="#7F7F7F" stroke-linecap="round" stroke-linejoin="round"/>
<path d="M563.83 282.05C563.83 282.05 565.95 285.32 572.77 283.87" stroke="#7F7F7F" stroke-linecap="round" stroke-linejoin="round"/>
<path d="M589.23 288.46C589.758 292.32 591.213 295.995 593.47 299.17" stroke="#7F7F7F" stroke-linecap="round" stroke-linejoin="round"/>
<path d="M589 284.92C588.986 285.517 589.006 286.115 589.06 286.71" stroke="#7F7F7F" stroke-linecap="round" stroke-linejoin="round"/>
<path opacity="0.3" d="M597.86 392.2C597.677 392.353 597.546 392.558 597.484 392.787C597.422 393.017 597.432 393.26 597.513 393.484C597.594 393.708 597.741 393.901 597.936 394.038C598.13 394.175 598.362 394.249 598.6 394.25C605.36 394.25 623.6 394.33 630.6 393.92C639.35 393.42 632.67 383.92 625.6 387.54C619.19 390.89 605.55 385.31 597.86 392.2Z" fill="black"/>
<path d="M521.71 382.82C521.71 382.82 525.8 371.93 536.06 373.66C546.32 375.39 538.48 383.98 533.54 384.74C533.54 384.74 532.79 381.75 521.71 382.82Z" fill="white" stroke="#263238" stroke-linecap="round" stroke-linejoin="round"/>
<path d="M513 389C511.65 390.35 508.4 390.47 510.59 387.54C512.381 385.183 514.811 383.389 517.59 382.37C522.45 380.2 524.35 380.64 528.75 379.67C533.15 378.7 533.98 380.5 535.5 381.33C539.13 383.33 540 383.67 540.92 385.67C541.84 387.67 542.84 390.27 540 390.27C537.42 390.27 537.25 386 534.75 386.17C532.25 386.34 531 390.27 529.25 390.27H528.59C527.09 390.27 527.01 389.02 527.92 387.06C528.83 385.1 529.84 383.33 529.84 383.33C528.355 384.112 527.168 385.359 526.46 386.88C525.26 389.43 525.04 390.5 522.83 390.5C520.62 390.5 520.83 388.86 522.97 385.24C521.699 386.001 520.648 387.08 519.92 388.37C518.84 390.37 518.27 390.27 516.86 390.27C515 390.27 515.13 387.21 518.42 385.21C518.44 385.21 517.71 384.31 513 389Z" fill="white" stroke="#263238" stroke-linecap="round" stroke-linejoin="round"/>
<path d="M525.88 381.69C525.88 381.69 524.59 381.63 523.77 383.81Z" fill="white"/>
<path d="M525.88 381.69C525.88 381.69 524.59 381.63 523.77 383.81" stroke="#263238" stroke-width="0.75" stroke-linecap="round" stroke-linejoin="round"/>
<path d="M690.2 287.54C696.657 292.614 702.805 298.071 708.61 303.88" stroke="#263238" stroke-width="0.75" stroke-linecap="round" stroke-linejoin="round"/>
<path d="M683.22 282.29C684.44 283.17 685.66 284.06 686.86 284.97" stroke="#263238" stroke-width="0.75" stroke-linecap="round" stroke-linejoin="round"/>
<path d="M676.25 277.5C677.503 278.32 678.75 279.16 679.99 280.02" stroke="#263238" stroke-width="0.75" stroke-linecap="round" stroke-linejoin="round"/>
<path d="M625.09 253.3C641.649 258.451 657.479 265.707 672.19 274.89" stroke="#263238" stroke-width="0.75" stroke-linecap="round" stroke-linejoin="round"/>
<path d="M614.17 250.22C616.17 250.733 618.187 251.273 620.22 251.84" stroke="#263238" stroke-width="0.75" stroke-linecap="round" stroke-linejoin="round"/>
<path d="M602.93 247.73C605.13 248.15 607.323 248.61 609.51 249.11" stroke="#263238" stroke-width="0.75" stroke-linecap="round" stroke-linejoin="round"/>
<path d="M592.92 246.06C594.82 246.333 596.713 246.627 598.6 246.94" stroke="#263238" stroke-width="0.75" stroke-linecap="round" stroke-linejoin="round"/>
<path d="M532.61 246.46C551.144 243.573 569.985 243.237 588.61 245.46" stroke="#263238" stroke-width="0.75" stroke-linecap="round" stroke-linejoin="round"/>
<path d="M524.36 247.91C526.06 247.58 527.77 247.26 529.47 246.97" stroke="#263238" stroke-width="0.75" stroke-linecap="round" stroke-linejoin="round"/>
<path d="M516.35 249.66C518.06 249.25 519.76 248.87 521.48 248.51" stroke="#263238" stroke-width="0.75" stroke-linecap="round" stroke-linejoin="round"/>
<path d="M506.51 252.28C508.25 251.77 509.99 251.28 511.74 250.82" stroke="#263238" stroke-width="0.75" stroke-linecap="round" stroke-linejoin="round"/>
<path d="M447 280.89C463.558 269.283 481.759 260.219 501 254" stroke="#263238" stroke-width="0.75" stroke-linecap="round" stroke-linejoin="round"/>
<path d="M439 286.82C440.56 285.613 442.137 284.427 443.73 283.26" stroke="#263238" stroke-width="0.75" stroke-linecap="round" stroke-linejoin="round"/>
<path d="M430.9 293.42C432.61 291.94 434.35 290.5 436.1 289.09" stroke="#263238" stroke-width="0.75" stroke-linecap="round" stroke-linejoin="round"/>
<path d="M419.64 303.88C421.987 301.533 424.373 299.257 426.8 297.05" stroke="#263238" stroke-width="0.75" stroke-linecap="round" stroke-linejoin="round"/>
<path d="M497.18 273.135C500.366 259.769 492.114 246.35 478.748 243.163C465.382 239.976 451.963 248.229 448.776 261.595C445.59 274.961 453.842 288.38 467.208 291.566C480.574 294.753 493.993 286.501 497.18 273.135Z" fill="white"/>
<mask id="mask2_21_179" style="mask-type:luminance" maskUnits="userSpaceOnUse" x="448" y="242" width="50" height="51">
<path d="M497.18 273.135C500.366 259.769 492.114 246.35 478.748 243.163C465.382 239.976 451.963 248.229 448.776 261.595C445.59 274.961 453.842 288.38 467.208 291.567C480.574 294.753 493.993 286.501 497.18 273.135Z" fill="white"/>
</mask>
<g mask="url(#mask2_21_179)">
<path opacity="0.3" d="M497.18 273.135C500.366 259.769 492.114 246.35 478.748 243.163C465.382 239.976 451.963 248.229 448.776 261.595C445.59 274.961 453.842 288.38 467.208 291.567C480.574 294.753 493.993 286.501 497.18 273.135Z" fill="white"/>
</g>
<path d="M497.18 273.135C500.366 259.769 492.114 246.35 478.748 243.163C465.382 239.976 451.963 248.229 448.776 261.595C445.59 274.961 453.842 288.38 467.208 291.566C480.574 294.753 493.993 286.501 497.18 273.135Z" stroke="#263238" stroke-width="0.75" stroke-linecap="round" stroke-linejoin="round"/>
<path d="M461 277.13V270.9C461 269.34 460.56 268.9 458.87 268.9V265.85C460.56 265.85 461 265.38 461 263.85V257.62C460.956 257.115 461.023 256.607 461.196 256.13C461.369 255.654 461.645 255.221 462.003 254.863C462.361 254.505 462.794 254.229 463.27 254.056C463.747 253.883 464.255 253.816 464.76 253.86H466.66V256.86H466.11C464.93 256.86 464.32 257.4 464.32 259.27V264.34C464.388 265.004 464.217 265.671 463.837 266.221C463.458 266.771 462.895 267.168 462.25 267.34V267.41C462.895 267.582 463.458 267.979 463.837 268.529C464.217 269.079 464.388 269.746 464.32 270.41V275.49C464.32 277.35 464.93 277.89 466.11 277.89H466.66V280.89H464.76C464.255 280.934 463.747 280.867 463.27 280.694C462.794 280.521 462.361 280.245 462.003 279.887C461.645 279.529 461.369 279.096 461.196 278.62C461.023 278.143 460.956 277.635 461 277.13Z" fill="white" stroke="#263238" stroke-width="0.75" stroke-linecap="round" stroke-linejoin="round"/>
<path d="M479.23 277.84H479.77C480.96 277.84 481.57 277.3 481.57 275.44V270.36C481.504 269.697 481.674 269.032 482.051 268.483C482.428 267.934 482.988 267.536 483.63 267.36V267.29C482.987 267.116 482.426 266.718 482.049 266.169C481.671 265.619 481.502 264.953 481.57 264.29V259.22C481.57 257.35 480.96 256.81 479.77 256.81H479.23V253.81H481.13C481.635 253.766 482.143 253.833 482.62 254.006C483.096 254.179 483.529 254.455 483.887 254.813C484.245 255.171 484.521 255.604 484.694 256.08C484.867 256.557 484.934 257.065 484.89 257.57V263.8C484.89 265.36 485.33 265.8 487.02 265.8V268.85C485.33 268.85 484.89 269.32 484.89 270.85V277.08C484.934 277.585 484.867 278.093 484.694 278.57C484.521 279.046 484.245 279.479 483.887 279.837C483.529 280.195 483.096 280.471 482.62 280.644C482.143 280.817 481.635 280.884 481.13 280.84H479.23V277.84Z" fill="white" stroke="#263238" stroke-width="0.75" stroke-linecap="round" stroke-linejoin="round"/>
<path d="M424.76 299.11H410.41C403.805 299.11 398.45 304.465 398.45 311.07V325.42C398.45 332.025 403.805 337.38 410.41 337.38H424.76C431.365 337.38 436.72 332.025 436.72 325.42V311.07C436.72 304.465 431.365 299.11 424.76 299.11Z" fill="white" stroke="#263238" stroke-width="0.75" stroke-linecap="round" stroke-linejoin="round"/>
<path d="M403.71 319.17V317.32L411.36 314.02V316.02L406.09 318.25L411.36 320.47V322.47L403.71 319.17Z" fill="white" stroke="#263238" stroke-width="0.75" stroke-linecap="round" stroke-linejoin="round"/>
<path d="M419.84 309.5H422.22L415.32 327H412.94L419.84 309.5Z" fill="white" stroke="#263238" stroke-width="0.75" stroke-linecap="round" stroke-linejoin="round"/>
<path d="M423.8 320.47L429.07 318.25L423.8 316V314L431.45 317.3V319.15L423.8 322.45V320.47Z" fill="white" stroke="#263238" stroke-width="0.75" stroke-linecap="round" stroke-linejoin="round"/>
<path d="M670.133 266.55C672.802 255.133 665.711 243.714 654.294 241.044C642.877 238.375 631.457 245.466 628.788 256.883C626.118 268.3 633.21 279.72 644.627 282.389C656.044 285.059 667.463 277.967 670.133 266.55Z" fill="white"/>
<mask id="mask3_21_179" style="mask-type:luminance" maskUnits="userSpaceOnUse" x="628" y="240" width="43" height="43">
<path d="M670.133 266.55C672.802 255.133 665.711 243.714 654.294 241.044C642.877 238.375 631.457 245.466 628.788 256.883C626.118 268.3 633.21 279.72 644.627 282.389C656.044 285.059 667.463 277.967 670.133 266.55Z" fill="white"/>
</mask>
<g mask="url(#mask3_21_179)">
<path opacity="0.2" d="M670.133 266.55C672.802 255.133 665.711 243.714 654.294 241.044C642.877 238.375 631.457 245.466 628.788 256.883C626.118 268.3 633.21 279.72 644.627 282.389C656.044 285.059 667.463 277.967 670.133 266.55Z" fill="black"/>
</g>
<path d="M670.133 266.55C672.802 255.133 665.711 243.714 654.294 241.044C642.877 238.375 631.457 245.466 628.788 256.883C626.118 268.3 633.21 279.72 644.627 282.389C656.044 285.059 667.463 277.967 670.133 266.55Z" stroke="#263238" stroke-width="0.75" stroke-linecap="round" stroke-linejoin="round"/>
<path d="M636.33 266.12V257.32C636.33 254.79 637.64 253.32 640.12 253.32C642.6 253.32 643.91 254.81 643.91 257.32V259.05H641.48V257.16C641.48 256.08 640.96 255.64 640.19 255.64C639.42 255.64 638.91 256.08 638.91 257.16V266.3C638.91 267.38 639.42 267.8 640.19 267.8C640.96 267.8 641.48 267.38 641.48 266.3V263.8H643.91V266.12C643.91 268.64 642.6 270.12 640.12 270.12C637.64 270.12 636.33 268.64 636.33 266.12Z" fill="white" stroke="#263238" stroke-width="0.75" stroke-linecap="round" stroke-linejoin="round"/>
<path d="M648.27 262.63H645.13V260.8H648.27V257.65H650.09V260.8H653.23V262.63H650.09V265.83H648.27V262.63Z" fill="white" stroke="#263238" stroke-width="0.75" stroke-linecap="round" stroke-linejoin="round"/>
<path d="M657.63 262.63H654.49V260.8H657.63V257.65H659.45V260.8H662.59V262.63H659.45V265.83H657.63V262.63Z" fill="white" stroke="#263238" stroke-width="0.75" stroke-linecap="round" stroke-linejoin="round"/>
<path d="M568.07 220.24H548.88C541.369 220.24 535.28 226.329 535.28 233.84V253.03C535.28 260.541 541.369 266.63 548.88 266.63H568.07C575.581 266.63 581.67 260.541 581.67 253.03V233.84C581.67 226.329 575.581 220.24 568.07 220.24Z" fill="white" stroke="#263238" stroke-width="0.75" stroke-linecap="round" stroke-linejoin="round"/>
<path d="M544.53 248.32V238.55C544.53 235.74 545.99 234.08 548.74 234.08C551.49 234.08 553 235.74 553 238.55V240.47H550.3V238.36C550.3 237.17 549.72 236.68 548.87 236.68C548.02 236.68 547.44 237.17 547.44 238.36V248.52C547.44 249.72 548.01 250.19 548.87 250.19C549.73 250.19 550.3 249.72 550.3 248.52V245.74H553V248.32C553 251.12 551.54 252.78 548.79 252.78C546.04 252.78 544.53 251.12 544.53 248.32Z" fill="white" stroke="#263238" stroke-width="0.75" stroke-linecap="round" stroke-linejoin="round"/>
<path d="M554.23 248.21V247.21H556.93V248.46C556.93 249.76 557.5 250.23 558.41 250.23C559.32 250.23 559.89 249.76 559.89 248.41C559.89 246.9 559.32 245.94 557.45 244.3C555.06 242.2 554.28 240.72 554.28 238.64C554.28 235.78 555.76 234.12 558.54 234.12C561.32 234.12 562.7 235.78 562.7 238.69V239.44H560V238.51C560 237.21 559.48 236.72 558.57 236.72C557.66 236.72 557.15 237.21 557.15 238.46C557.15 239.71 557.74 240.74 559.61 242.38C562 244.48 562.76 245.94 562.76 248.2C562.76 251.2 561.25 252.82 558.44 252.82C555.63 252.82 554.23 251.12 554.23 248.21Z" fill="white" stroke="#263238" stroke-width="0.75" stroke-linecap="round" stroke-linejoin="round"/>
<path d="M563.9 248.21V247.21H566.6V248.46C566.6 249.76 567.17 250.23 568.08 250.23C568.99 250.23 569.56 249.76 569.56 248.41C569.56 246.9 568.99 245.94 567.12 244.3C564.73 242.2 563.95 240.72 563.95 238.64C563.95 235.78 565.43 234.12 568.21 234.12C570.99 234.12 572.37 235.78 572.37 238.69V239.44H569.66V238.51C569.66 237.21 569.14 236.72 568.23 236.72C567.32 236.72 566.81 237.21 566.81 238.46C566.81 239.71 567.4 240.74 569.27 242.38C571.66 244.48 572.42 245.94 572.42 248.2C572.42 251.2 570.91 252.82 568.1 252.82C565.29 252.82 563.9 251.12 563.9 248.21Z" fill="white" stroke="#263238" stroke-width="0.75" stroke-linecap="round" stroke-linejoin="round"/>
<path d="M726.223 311.549C728.936 300.171 721.911 288.748 710.532 286.035C699.154 283.322 687.731 290.347 685.018 301.725C682.305 313.104 689.33 324.527 700.708 327.24C712.087 329.953 723.51 322.928 726.223 311.549Z" fill="white"/>
<mask id="mask4_21_179" style="mask-type:luminance" maskUnits="userSpaceOnUse" x="684" y="285" width="43" height="43">
<path d="M726.223 311.549C728.936 300.171 721.911 288.748 710.532 286.035C699.154 283.322 687.731 290.347 685.018 301.725C682.305 313.104 689.33 324.527 700.708 327.24C712.087 329.953 723.51 322.928 726.223 311.549Z" fill="white"/>
</mask>
<g mask="url(#mask4_21_179)">
<path opacity="0.3" d="M726.223 311.549C728.936 300.171 721.911 288.748 710.532 286.035C699.154 283.322 687.731 290.347 685.018 301.725C682.305 313.104 689.33 324.527 700.708 327.24C712.087 329.953 723.51 322.928 726.223 311.549Z" fill="white"/>
</g>
<path d="M726.223 311.549C728.936 300.171 721.911 288.748 710.532 286.035C699.154 283.322 687.731 290.347 685.018 301.725C682.305 313.104 689.33 324.527 700.708 327.24C712.087 329.953 723.51 322.928 726.223 311.549Z" stroke="#263238" stroke-width="0.75" stroke-linecap="round" stroke-linejoin="round"/>
<path d="M697.27 310.83V302.42C697.27 300.01 698.52 298.58 700.89 298.58C703.26 298.58 704.51 300.01 704.51 302.42V304.08H702.19V302.27C702.19 301.27 701.69 300.81 700.96 300.81C700.23 300.81 699.73 301.24 699.73 302.27V311C699.73 312 700.22 312.43 700.96 312.43C701.7 312.43 702.19 312.03 702.19 311V308.61H704.51V310.82C704.51 313.23 703.26 314.66 700.89 314.66C698.52 314.66 697.27 313.24 697.27 310.83Z" fill="white" stroke="#263238" stroke-width="0.75" stroke-linecap="round" stroke-linejoin="round"/>
<path d="M706.53 310H705.43L705.61 308.26H706.71L707.13 304.17H706L706.18 302.42H707.3L707.68 298.82H709.62L709.24 302.42H710.83L711.21 298.82H713.16L712.78 302.42H713.92L713.74 304.17H712.6L712.17 308.26H713.31L713.13 310H712L711.53 314.47H709.59L710.06 310H708.47L708 314.47H706.06L706.53 310ZM710.24 308.26L710.66 304.17H709.08L708.65 308.26H710.24Z" fill="white" stroke="#263238" stroke-width="0.75" stroke-linecap="round" stroke-linejoin="round"/>
<path d="M455.23 550.51H451.52L450.52 403.25H455.23V550.51Z" fill="#858585" stroke="#263238" stroke-linecap="round" stroke-linejoin="round"/>
<path d="M458.93 550.51H455.23V403.25H459.93L458.93 550.51Z" fill="#999999" stroke="#263238" stroke-linecap="round" stroke-linejoin="round"/>
<path d="M666.99 394.24H412.78V403.26H666.99V394.24Z" fill="#263238" stroke="#263238" stroke-linecap="round" stroke-linejoin="round"/>
<path d="M720.11 394.24H663.19V403.26H720.11V394.24Z" fill="#858585" stroke="#263238" stroke-linecap="round" stroke-linejoin="round"/>
<path d="M678.52 403.25H425.8V418.11H678.52V403.25Z" fill="white" stroke="#263238" stroke-miterlimit="10"/>
<path d="M678.52 418.12H707.95V403.26H678.52V418.12Z" fill="white"/>
<mask id="mask5_21_179" style="mask-type:luminance" maskUnits="userSpaceOnUse" x="678" y="403" width="30" height="16">
<path d="M678.52 418.12H707.95V403.26H678.52V418.12Z" fill="white"/>
</mask>
<g mask="url(#mask5_21_179)">
<path opacity="0.3" d="M678.52 418.12H707.95V403.26H678.52V418.12Z" fill="black"/>
</g>
<path d="M678.52 418.12H707.95V403.26H678.52V418.12Z" stroke="#263238" stroke-miterlimit="10"/>
<path d="M678.52 550.51H674.82L673.82 403.25H678.52V550.51Z" fill="#858585" stroke="#263238" stroke-linecap="round" stroke-linejoin="round"/>
<path d="M682.23 550.51H678.52V403.25H683.23L682.23 550.51Z" fill="#999999" stroke="#263238" stroke-linecap="round" stroke-linejoin="round"/>
<path d="M425.8 550.51H422.09L421.09 403.25H425.8V550.51Z" fill="#858585" stroke="#263238" stroke-linecap="round" stroke-linejoin="round"/>
<path d="M429.5 550.51H425.8V403.25H430.5L429.5 550.51Z" fill="#999999" stroke="#263238" stroke-linecap="round" stroke-linejoin="round"/>
<path d="M707.95 550.51H704.24L703.24 403.25H707.95V550.51Z" fill="#858585" stroke="#263238" stroke-linecap="round" stroke-linejoin="round"/>
<path d="M711.65 550.51H707.95V403.25H712.65L711.65 550.51Z" fill="#999999" stroke="#263238" stroke-linecap="round" stroke-linejoin="round"/>
<path d="M577.05 393.24H547.26C546.967 393.237 546.688 393.119 546.482 392.911C546.276 392.703 546.16 392.423 546.16 392.13V389.67L578.16 390.67V392.13C578.16 392.424 578.043 392.707 577.835 392.915C577.627 393.123 577.344 393.24 577.05 393.24Z" fill="#858585" stroke="#263238" stroke-linecap="round" stroke-linejoin="round"/>
<path d="M542.83 393.24H482.94C482.447 393.222 481.972 393.051 481.58 392.752C481.188 392.453 480.898 392.04 480.75 391.57L467.89 349.83C467.794 349.586 467.76 349.323 467.79 349.063C467.821 348.802 467.917 348.554 468.067 348.34C468.218 348.126 468.42 347.952 468.654 347.835C468.888 347.718 469.148 347.662 469.41 347.67H529.3C529.792 347.686 530.267 347.855 530.659 348.152C531.051 348.449 531.341 348.861 531.49 349.33L544.35 391.07C544.446 391.314 544.48 391.578 544.449 391.839C544.418 392.099 544.323 392.348 544.172 392.563C544.022 392.778 543.82 392.952 543.586 393.07C543.352 393.188 543.092 393.247 542.83 393.24Z" fill="#999999" stroke="#263238" stroke-linecap="round" stroke-linejoin="round"/>
<path d="M547 391.07L534.14 349.33C533.991 348.861 533.701 348.449 533.309 348.152C532.917 347.855 532.442 347.686 531.95 347.67H529.3C529.792 347.686 530.267 347.855 530.659 348.152C531.051 348.449 531.341 348.861 531.49 349.33L544.35 391.07C544.446 391.314 544.48 391.578 544.449 391.839C544.418 392.099 544.323 392.348 544.172 392.563C544.022 392.778 543.82 392.952 543.586 393.07C543.352 393.188 543.092 393.247 542.83 393.24H545.52C545.779 393.24 546.034 393.177 546.263 393.056C546.491 392.935 546.687 392.76 546.833 392.546C546.979 392.332 547.07 392.086 547.1 391.829C547.129 391.571 547.094 391.311 547 391.07Z" fill="#858585" stroke="#263238" stroke-linecap="round" stroke-linejoin="round"/>
<path d="M509.83 370.45C509.903 370.915 509.874 371.39 509.743 371.842C509.612 372.294 509.384 372.712 509.074 373.066C508.764 373.42 508.38 373.702 507.949 373.891C507.518 374.08 507.05 374.172 506.58 374.16C505.56 374.134 504.581 373.747 503.82 373.068C503.058 372.389 502.562 371.461 502.42 370.45C502.346 369.986 502.376 369.511 502.507 369.059C502.637 368.607 502.866 368.19 503.176 367.837C503.487 367.484 503.871 367.203 504.302 367.015C504.733 366.827 505.2 366.737 505.67 366.75C506.688 366.777 507.664 367.163 508.426 367.841C509.187 368.518 509.684 369.442 509.83 370.45Z" fill="white" stroke="#263238" stroke-linecap="round" stroke-linejoin="round"/>
</svg>
